<svg xmlns="http://www.w3.org/2000/svg" width="64" height="64" viewBox="0 0 16.933 16.933" id="empty-basket"><g transform="translate(246.67 -268.657) scale(1.9383)"><path fill="#1daeeb" d="M 4909.46,16140.6 H 3395.33 l 52.02,159.4 h 1410.11 l 52,-159.4" transform="matrix(.0026 0 0 -.0026 -133.725 184.903)"></path><path fill="#f7ca68" d="m 4659.92,15554.1 h -907.66 c -25.08,0 -47.42,15.8 -55.78,39.4 l -221.54,627.7 c -13.58,38.5 14.96,78.8 55.77,78.8 h 1350.77 c 40.8,0 69.35,-40.3 55.77,-78.8 l -221.55,-627.7 c -8.36,-23.6 -30.7,-39.4 -55.78,-39.4" transform="matrix(.00257 0 0 -.00257 -133.725 184.903)"></path><path fill="#e9e8e8" d="m 3631.73,15495.7 -237.83,638.1 h 174.21 l -3.73,-9.7 h -71.77 c -40.37,0 -68.6,-39.9 -55.17,-78 l 194.29,-550.4 m -2.56,797.4 h -163.22 l 165.85,6.9 -2.63,-6.9" transform="matrix(.0026 0 0 -.0026 -133.725 184.903)"></path><path fill="#1e9fd6" d="m 3569.61,16140.6 h -174.28 l 72.08,159.4 h 163.29 l -61.09,-159.4" transform="matrix(.0026 0 0 -.0026 -133.725 184.903)"></path><path fill="#e1b961" d="m 3863.52,15576.5 h -105.64 l -86.46,88.1 -0.07,0.1 -196.41,556.5 c -13.58,38.5 14.96,78.8 55.77,78.8 h 72.55 l -1.13,-3 277.59,-2.1 26.44,-110.2 h -275.88 l 233.24,-608.2 m 976.84,608.2 h -264.28 l 25.12,104.7 275.74,-2.1 -36.58,-102.6 m -308.89,0 h -580.7 l -26.35,109.9 632.25,-4.9 -25.2,-105" transform="matrix(.00257 0 0 -.00257 -133.725 184.903)"></path><path fill="#fff" d="m 4676.59,15458.6 194.63,551.4 h 16.13 l 37.56,100.7 -59.42,0.5 c -9.89,8 -22.55,12.9 -36.69,12.9 v 0 l -3.95,9.7 h 82.54 l -31.27,95.9 79.41,-78.3 -254.31,-680.7 -24.63,-12.1 m 135.18,834.5 h -18.12 l 11.17,6.9 6.95,-6.9" transform="matrix(.0026 0 0 -.0026 -133.725 184.903)"></path><path fill="#6ccaf2" d="m 4909.46,16140.6 h -82.57 l -58.04,142.9 26.82,16.5 h 18.13 l 64.37,-63.5 31.29,-95.9" transform="matrix(.0026 0 0 -.0026 -133.725 184.903)"></path><path fill="#fadc9d" d="m 4623.56,15576.5 216.8,608.2 h 84 l -196.75,-557.4 -104.05,-50.8 m 295.01,710.5 -41.63,0.3 4.54,12.7 c 14.3,0 27.09,-4.9 37.09,-13" transform="matrix(.00257 0 0 -.00257 -133.725 184.903)"></path><path fill="#f1f0f0" d="m 4944.62,16197.6 h -16.32 l 12.9,36.6 c 8.83,25 -0.14,50.8 -18.69,65.8 l 60.11,-0.5 -38,-101.9" transform="matrix(.00257 0 0 -.00257 -133.725 184.903)"></path><path fill="#ebd198" d="m 4928.2,16197.3 h -84.06 l 36.61,102.7 41.66,-0.3 c 18.56,-15 27.52,-40.8 18.69,-65.9 l -12.9,-36.5" transform="matrix(.00257 0 0 -.00257 -133.725 184.903)"></path><path fill="#fadc9d" d="m 4430.22,15576.5 h -44.61 l 145.86,608.2 h 44.61 l -145.86,-608.2 m 170.98,712.9 -44.53,0.3 2.46,10.3 h 44.61 l -2.54,-10.6" transform="matrix(.00257 0 0 -.00257 -133.725 184.903)"></path><path fill="#ebd198" d="m 4578.96,16194.9 h -44.64 l 25.22,105.1 44.56,-0.3 -25.14,-104.8" transform="matrix(.00257 0 0 -.00257 -133.725 184.903)"></path><path fill="#fadc9d" d="m 4096.65,15576.5 h -44.62 l -145.87,608.2 h 44.61 l 145.88,-608.2 m -172.23,718.1 -44.7,0.3 -1.22,5.1 h 44.62 l 1.3,-5.4" transform="matrix(.00257 0 0 -.00257 -133.725 184.903)"></path><path fill="#ebd198" d="m 3952,16189.7 h -44.62 l -26.45,110.3 44.71,-0.3 26.36,-110" transform="matrix(.00257 0 0 -.00257 -133.725 184.903)"></path><path fill="#1a3351" d="m 3550.55,16236.5 c -41.48,0 -78.98,-19.5 -102.86,-53.4 -23.88,-33.9 -29.55,-75.8 -15.55,-114.9 l 213.9,-596.7 c 17.87,-49.8 65.45,-83.3 118.41,-83.3 h 776.73 c 52.96,0 100.54,33.5 118.41,83.3 l 213.9,596.7 c 14,39.1 8.34,81 -15.55,114.9 -23.87,33.9 -61.37,53.4 -102.86,53.4 z m 990.63,-911.9 h -776.73 c -39.21,0 -76.9,12 -108.96,34.5 -32.07,22.6 -56.01,54.1 -69.25,91 l -213.9,596.7 c -10.71,29.9 -13.8,60.7 -9.19,91.6 4.32,29 15.59,57.1 32.59,81.2 17,24.2 39.64,44.3 65.46,58.1 27.56,14.8 57.61,22.3 89.35,22.3 h 1204.53 c 31.74,0 61.8,-7.5 89.36,-22.3 25.81,-13.8 48.44,-33.9 65.45,-58.1 17,-24.1 28.27,-52.2 32.6,-81.2 4.6,-30.9 1.51,-61.7 -9.2,-91.6 l -213.9,-596.7 c -13.23,-36.9 -37.17,-68.4 -69.24,-91 -32.08,-22.5 -69.75,-34.5 -108.97,-34.5" transform="matrix(.0026 0 0 -.0026 -133.725 184.903)"></path><path fill="#1a3351" d="m 4951.22,16234.2 h -1267.6 c -18.18,0 -32.91,14.7 -32.91,32.9 0,18.2 14.73,32.9 32.91,32.9 h 1267.6 c 18.16,0 14.54,-14.7 14.54,-32.9 0,-18.2 3.62,-32.9 -14.54,-32.9" transform="matrix(.00252 0 0 -.00252 -133.725 184.903)"></path><path fill="#1a3351" d="M4035.43 15504.3c-14.47 0-27.61 9.8-31.19 24.5l-177.96 728.1c-4.21 17.3 6.35 34.7 23.59 38.9 17.24 4.2 34.63-6.4 38.84-23.6l177.95-728.2c4.22-17.2-6.34-34.6-23.58-38.8-2.56-.6-5.13-.9-7.65-.9M4348.15 15510.9c-2.52 0-5.1.4-7.66 1-17.25 4.2-27.81 21.6-23.59 38.8l176.31 721.5c4.21 17.2 21.61 27.8 38.87 23.6 17.24-4.2 27.81-21.6 23.58-38.9l-176.3-721.4c-3.59-14.7-16.73-24.6-31.21-24.6" transform="matrix(.00258 0 0 -.00258 -133.725 184.903)"></path><path fill="#1a3351" d="M 4971.14,16235.7 H 3458.05 c -17.75,0 -32.15,14.4 -32.15,32.2 0,17.7 14.4,32.1 32.15,32.1 h 1513.09 c 17.75,0 32.13,-14.4 32.13,-32.1 0,-17.8 -14.38,-32.2 -32.13,-32.2" transform="matrix(.00258 0 0 -.00258 -133.725 184.903)"></path><path fill="#1a3351" d="M3286.06 15564.9c-2.81 0-5.66.4-8.5 1.2-16.32 4.7-25.77 21.8-21.1 38.1l191.96 670c4.68 16.4 21.72 25.8 38.04 21.1 16.34-4.7 25.79-21.7 21.11-38l-191.96-670c-3.86-13.6-16.17-22.4-29.55-22.4M4758.06 15564.9c-13.38 0-25.69 8.8-29.55 22.4l-191.96 670c-4.68 16.3 4.77 33.3 21.1 38 16.33 4.7 33.36-4.7 38.04-21.1l191.96-670c4.68-16.3-4.77-33.4-21.1-38.1-2.84-.8-5.68-1.2-8.49-1.2" transform="matrix(.0027 0 0 -.0027 -133.725 184.903)"></path></g></svg>
